<svg width="25" height="24" viewBox="0 0 25 24" fill="none" xmlns="http://www.w3.org/2000/svg">
<path d="M12.9678 0C6.32657 0 0.942017 5.373 0.942017 12C0.942017 17.623 4.82234 22.328 10.0536 23.63C9.99744 23.468 9.96136 23.28 9.96136 23.047V20.996C9.47332 20.996 8.65556 20.996 8.45012 20.996C7.62736 20.996 6.89579 20.643 6.54103 19.987C6.14718 19.258 6.07903 18.143 5.10294 17.461C4.81332 17.234 5.03379 16.975 5.36751 17.01C5.98383 17.184 6.49493 17.606 6.97596 18.232C7.45499 18.859 7.68047 19.001 8.57539 19.001C9.00932 19.001 9.65871 18.976 10.27 18.88C10.5987 18.047 11.1669 17.28 11.8614 16.918C7.85685 16.507 5.94575 14.519 5.94575 11.82C5.94575 10.658 6.44181 9.534 7.28462 8.587C7.00803 7.647 6.66028 5.73 7.39085 5C9.19271 5 10.2821 6.166 10.5436 6.481C11.4415 6.174 12.4277 6 13.4639 6C14.5021 6 15.4922 6.174 16.3922 6.483C16.6507 6.17 17.741 5 19.5469 5C20.2805 5.731 19.9287 7.656 19.6491 8.594C20.4869 9.539 20.98 10.66 20.98 11.82C20.98 14.517 19.0719 16.504 15.0733 16.917C16.1737 17.49 16.9764 19.1 16.9764 20.313V23.047C16.9764 23.151 16.9534 23.226 16.9413 23.315C21.6274 21.676 24.9936 17.236 24.9936 12C24.9936 5.373 19.6091 0 12.9678 0Z" fill="#979191"/>
</svg>
