<svg width="24" height="23" viewBox="0 0 24 23" fill="none" xmlns="http://www.w3.org/2000/svg">
<path d="M20.8876 0H3.57043C2.07682 0 0.864624 1.2096 0.864624 2.7V19.98C0.864624 21.4704 2.07682 22.68 3.57043 22.68H20.8876C22.3812 22.68 23.5934 21.4704 23.5934 19.98V2.7C23.5934 1.2096 22.3812 0 20.8876 0ZM7.89971 8.64V18.9H4.65275V8.64H7.89971ZM4.65275 5.6538C4.65275 4.8978 5.30214 4.32 6.27623 4.32C7.25032 4.32 7.86183 4.8978 7.89971 5.6538C7.89971 6.4098 7.29361 7.02 6.27623 7.02C5.30214 7.02 4.65275 6.4098 4.65275 5.6538ZM19.8052 18.9H16.5583C16.5583 18.9 16.5583 13.8996 16.5583 13.5C16.5583 12.42 16.0171 11.34 14.6642 11.3184H14.6209C13.3113 11.3184 12.7702 12.4308 12.7702 13.5C12.7702 13.9914 12.7702 18.9 12.7702 18.9H9.5232V8.64H12.7702V10.0224C12.7702 10.0224 13.8146 8.64 15.9143 8.64C18.0627 8.64 19.8052 10.1142 19.8052 13.1004V18.9Z" fill="#8E8E8E"/>
</svg>
